<svg width="40" height="40" viewBox="0 0 40 40" fill="none" xmlns="http://www.w3.org/2000/svg">
<path d="M9.504 29.5984C7.584 29.5984 6.176 29.1718 5.28 28.3184C4.42667 27.4224 4 26.3131 4 24.9904V23.6464C4 22.4091 4.17067 21.1718 4.512 19.9344C4.896 18.6544 5.38667 17.4384 5.984 16.2864C6.624 15.1344 7.37067 14.0678 8.224 13.0864C9.07733 12.0624 9.99467 11.1664 10.976 10.3984H16.928C15.52 11.6784 14.304 12.9798 13.28 14.3024C12.2987 15.6251 11.552 17.0971 11.04 18.7184C12.4053 18.9744 13.408 19.5504 14.048 20.4464C14.688 21.2998 15.008 22.2811 15.008 23.3904V24.9904C15.008 26.3131 14.56 27.4224 13.664 28.3184C12.8107 29.1718 11.424 29.5984 9.504 29.5984ZM24.544 29.5984C22.624 29.5984 21.216 29.1718 20.32 28.3184C19.4667 27.4224 19.04 26.3131 19.04 24.9904V23.6464C19.04 22.4091 19.2107 21.1718 19.552 19.9344C19.936 18.6544 20.4267 17.4384 21.024 16.2864C21.664 15.1344 22.4107 14.0678 23.264 13.0864C24.1173 12.0624 25.0347 11.1664 26.016 10.3984H31.968C30.56 11.6784 29.344 12.9798 28.32 14.3024C27.3387 15.6251 26.592 17.0971 26.08 18.7184C27.4453 18.9744 28.448 19.5504 29.088 20.4464C29.728 21.2998 30.048 22.2811 30.048 23.3904V24.9904C30.048 26.3131 29.6 27.4224 28.704 28.3184C27.8507 29.1718 26.464 29.5984 24.544 29.5984Z" fill="black"/>
</svg>
